<svg xmlns="http://www.w3.org/2000/svg" version="1.1" xmlns:xlink="http://www.w3.org/1999/xlink" xmlns:svgjs="http://svgjs.dev/svgjs" width="1500" height="1500" viewBox="0 0 1500 1500"><rect width="1500" height="1500" fill="#ffffff"></rect><g transform="matrix(0.6666666666666666,0,0,0.6666666666666666,249.3954213056307,453.93764530753543)"><svg viewBox="0 0 396 234" data-background-color="#636365" preserveAspectRatio="xMidYMid meet" height="886" width="1500" xmlns="http://www.w3.org/2000/svg" xmlns:xlink="http://www.w3.org/1999/xlink"><g id="tight-bounds" transform="matrix(1,0,0,1,0.24048597944278072,0.2888109447574436)"><svg viewBox="0 0 395.52 233.42154603527013" height="233.42154603527013" width="395.52"><g><svg viewBox="0 0 395.52 233.42154603527013" height="233.42154603527013" width="395.52"><g transform="matrix(1,0,0,1,0,120.36181747415671)"><svg viewBox="0 0 395.52 113.05972856111342" height="113.05972856111342" width="395.52"><g id="textblocktransform"><svg viewBox="0 0 395.52 113.05972856111342" height="113.05972856111342" width="395.52" id="textblock"><g><svg viewBox="0 0 395.52 113.05972856111342" height="113.05972856111342" width="395.52"><g transform="matrix(1,0,0,1,0,0)"><svg width="395.52" viewBox="1.58919456754256 -17.593678358919302 156.86276543245742 44.839348358919295" height="113.05972856111342" data-palette-color="#ffffff"><path d="M3.077-2.746v0c2.001-6.289 4.77-10.561 8.306-12.815 3.528-2.25 7.627-2.632 12.297-1.146v0c1.429 0.455 2.584 0.927 3.463 1.416 0.873 0.488 1.707 0.858 2.501 1.111v0c0.54 0.172 1.095 0.296 1.666 0.372 0.57 0.076 1.183 0.131 1.836 0.165v0l-3.326 12.269-5.533-1.079c0.183-0.466 0.353-0.913 0.509-1.338 0.148-0.422 0.283-0.823 0.404-1.204v0c0.627-1.969 0.762-3.605 0.407-4.908-0.355-1.302-1.438-2.241-3.248-2.817v0c-5.591-1.779-9.806 1.795-12.646 10.721v0c-0.677 2.128-1.072 3.996-1.185 5.604-0.106 1.61 0.057 2.998 0.491 4.165 0.431 1.173 1.129 2.147 2.093 2.922 0.955 0.78 2.148 1.397 3.577 1.851v0c1.556 0.495 3.171 0.753 4.843 0.775 1.67 0.028 3.306-0.001 4.907-0.086v0l-1.607 5.05c-1.722 0.466-3.595 0.581-5.618 0.343-2.021-0.244-3.921-0.649-5.7-1.215v0c-1.779-0.566-3.421-1.309-4.927-2.228-1.514-0.915-2.705-2.151-3.574-3.708-0.871-1.55-1.343-3.474-1.417-5.772-0.074-2.297 0.42-5.113 1.481-8.448zM42.962 2.235v0c-1.542-0.277-2.869 0.322-3.98 1.795-1.112 1.48-1.922 3.631-2.428 6.453v0c-0.495 2.756-0.544 4.955-0.148 6.597 0.401 1.65 1.439 2.626 3.112 2.926v0c1.542 0.277 2.891-0.355 4.048-1.894 1.156-1.533 1.987-3.711 2.493-6.533v0c0.236-1.312 0.382-2.505 0.44-3.578 0.057-1.073-0.021-2.012-0.237-2.816-0.209-0.796-0.58-1.445-1.113-1.948-0.54-0.503-1.269-0.837-2.187-1.002zM30.08 9.473v0c0.365-2.034 0.974-3.821 1.826-5.362 0.852-1.54 1.883-2.795 3.094-3.762 1.204-0.969 2.583-1.636 4.138-2.001 1.555-0.364 3.219-0.387 4.991-0.069v0c3.347 0.601 5.757 2.134 7.231 4.6 1.468 2.465 1.857 5.616 1.168 9.455v0c-0.371 2.067-0.986 3.887-1.844 5.46-0.858 1.573-1.903 2.866-3.134 3.878-1.233 1.018-2.618 1.718-4.157 2.098-1.546 0.386-3.188 0.423-4.927 0.111v0c-1.64-0.294-3.064-0.855-4.27-1.681-1.206-0.826-2.172-1.863-2.896-3.11-0.724-1.248-1.194-2.687-1.409-4.317-0.215-1.63-0.152-3.397 0.189-5.3zM55.693 4.2l6.058-3.732c0.614 1.001 1.101 1.878 1.462 2.632 0.36 0.754 0.62 1.519 0.778 2.295v0c0.528-0.506 1.124-1.035 1.788-1.587 0.663-0.545 1.367-1.025 2.11-1.439 0.736-0.408 1.528-0.739 2.376-0.994 0.848-0.255 1.722-0.358 2.62-0.311v0c0.832 0.045 1.633 0.238 2.403 0.58 0.763 0.341 1.425 0.877 1.987 1.608 0.562 0.731 0.994 1.706 1.295 2.924 0.302 1.218 0.405 2.726 0.309 4.523v0c-0.025 0.466-0.068 1.148-0.13 2.046-0.068 0.898-0.146 1.852-0.233 2.861-0.088 1.017-0.163 1.991-0.227 2.922-0.07 0.931-0.118 1.646-0.145 2.146v0c-0.059 1.098-0.039 2.158 0.061 3.177 0.092 1.026 0.303 1.882 0.633 2.568v0l-7.004 0.827c-0.192-0.778-0.287-1.618-0.286-2.519-0.005-0.902 0.01-1.685 0.046-2.351v0c0.05-0.932 0.128-1.889 0.234-2.872 0.099-0.976 0.2-1.922 0.302-2.838 0.095-0.91 0.192-1.772 0.289-2.588 0.09-0.81 0.151-1.514 0.183-2.113v0c0.105-1.964-0.155-3.33-0.782-4.098-0.626-0.768-1.522-1.183-2.687-1.245v0c-0.965-0.052-1.862 0.051-2.69 0.306-0.835 0.256-1.58 0.583-2.236 0.982v0c0.033 0.636 0.029 1.337-0.012 2.103-0.041 0.766-0.088 1.648-0.142 2.646v0c-0.082 1.531-0.156 2.912-0.222 4.144-0.066 1.232-0.117 2.38-0.155 3.446-0.044 1.066-0.081 2.072-0.111 3.019-0.038 0.953-0.067 1.929-0.087 2.929v0l-6.74-0.361c0.076-0.797 0.157-1.694 0.244-2.69 0.087-0.997 0.187-2.053 0.3-3.169 0.106-1.109 0.208-2.255 0.304-3.439 0.096-1.177 0.174-2.314 0.233-3.412v0c0.07-1.298 0.093-2.358 0.07-3.181-0.023-0.816-0.118-1.535-0.285-2.158-0.167-0.63-0.402-1.213-0.707-1.75-0.305-0.53-0.707-1.143-1.204-1.837zM81.922 5.346l5.539-4.466c0.736 0.915 1.33 1.724 1.782 2.426 0.453 0.702 0.806 1.428 1.062 2.178v0c0.46-0.568 0.984-1.168 1.573-1.8 0.589-0.625 1.226-1.189 1.911-1.694 0.679-0.498 1.423-0.926 2.232-1.286 0.809-0.36 1.663-0.573 2.56-0.639v0c0.831-0.061 1.65 0.03 2.457 0.271 0.8 0.242 1.525 0.69 2.174 1.345 0.65 0.654 1.201 1.566 1.654 2.736 0.453 1.17 0.746 2.653 0.877 4.448v0c0.034 0.465 0.077 1.147 0.13 2.046 0.046 0.899 0.089 1.855 0.13 2.868 0.041 1.02 0.089 1.995 0.144 2.928 0.048 0.932 0.091 1.648 0.127 2.146v0c0.08 1.097 0.234 2.145 0.461 3.145 0.221 1.007 0.538 1.829 0.953 2.467v0l-6.844 1.704c-0.289-0.748-0.489-1.568-0.601-2.462-0.119-0.894-0.203-1.673-0.252-2.338v0c-0.068-0.931-0.112-1.89-0.13-2.878-0.025-0.981-0.045-1.932-0.059-2.854-0.02-0.914-0.034-1.782-0.04-2.604-0.013-0.815-0.041-1.521-0.085-2.119v0c-0.144-1.961-0.575-3.283-1.293-3.966-0.718-0.683-1.659-0.981-2.824-0.896v0c-0.964 0.071-1.841 0.285-2.629 0.643-0.796 0.359-1.494 0.778-2.094 1.257v0c0.113 0.627 0.197 1.322 0.253 2.087 0.056 0.765 0.121 1.646 0.193 2.643v0c0.112 1.529 0.213 2.909 0.304 4.139 0.09 1.23 0.184 2.376 0.282 3.438 0.091 1.063 0.181 2.066 0.27 3.009 0.083 0.95 0.178 1.922 0.284 2.917v0l-6.732 0.493c-0.025-0.8-0.058-1.7-0.097-2.7-0.04-1-0.074-2.06-0.103-3.181-0.035-1.114-0.079-2.264-0.133-3.45-0.053-1.179-0.12-2.317-0.2-3.414v0c-0.095-1.297-0.206-2.351-0.332-3.165-0.126-0.806-0.311-1.508-0.555-2.105-0.245-0.604-0.552-1.153-0.923-1.647-0.37-0.488-0.845-1.044-1.425-1.67zM129.653 9.474l-12.472 2.397c0.642 2.456 1.484 4.1 2.527 4.932 1.044 0.838 2.433 1.09 4.167 0.757v0c1.309-0.252 2.509-0.686 3.599-1.303 1.083-0.616 1.97-1.159 2.66-1.631v0l0.783 4.075c-0.865 1.151-2.047 2.067-3.545 2.749-1.5 0.675-2.986 1.154-4.459 1.437v0c-1.211 0.233-2.434 0.315-3.669 0.247-1.235-0.068-2.398-0.432-3.489-1.091-1.096-0.652-2.072-1.669-2.928-3.053-0.862-1.375-1.525-3.274-1.991-5.696v0c-0.459-2.39-0.566-4.535-0.32-6.435 0.247-1.894 0.774-3.53 1.582-4.907 0.801-1.376 1.843-2.493 3.124-3.35 1.275-0.856 2.73-1.441 4.367-1.756v0c1.669-0.321 3.092-0.299 4.269 0.066 1.171 0.372 2.146 0.942 2.925 1.709 0.772 0.768 1.37 1.671 1.794 2.71 0.417 1.04 0.723 2.067 0.918 3.082v0c0.201 1.048 0.312 2.011 0.331 2.889 0.013 0.88-0.045 1.604-0.173 2.172zM119.394 0.601v0c-1.277 0.245-2.16 0.982-2.65 2.21-0.496 1.236-0.583 3.045-0.261 5.426v0l8.102-1.557c-0.025-0.131-0.047-0.296-0.065-0.496-0.025-0.199-0.053-0.38-0.084-0.544v0c-0.101-0.524-0.265-1.113-0.493-1.769-0.227-0.649-0.544-1.24-0.951-1.772-0.408-0.533-0.903-0.957-1.487-1.273-0.589-0.308-1.292-0.383-2.111-0.225zM143.966-9.318l6.914-2.182c-0.341 0.912-0.652 1.779-0.93 2.6-0.285 0.824-0.588 1.748-0.908 2.772-0.324 1.032-0.692 2.26-1.103 3.683-0.404 1.421-0.924 3.175-1.558 5.263v0c1.301 1.022 2.49 1.965 3.566 2.827 1.078 0.869 2.097 1.684 3.057 2.444 0.955 0.768 1.873 1.492 2.752 2.172 0.881 0.687 1.78 1.375 2.696 2.064v0l-6.819 2.152c-0.686-0.622-1.325-1.207-1.916-1.754-0.592-0.547-1.166-1.093-1.723-1.638-0.554-0.538-1.113-1.068-1.676-1.589-0.569-0.519-1.176-1.079-1.82-1.68v0c-0.45 1.785-0.851 3.449-1.203 4.994-0.352 1.544-0.687 3.083-1.007 4.617v0l-6.819 2.152c0.4-1.28 0.767-2.444 1.1-3.493 0.333-1.049 0.671-2.117 1.013-3.204 0.336-1.085 0.697-2.265 1.085-3.54 0.381-1.274 0.844-2.818 1.39-4.633v0c-1.947-1.518-3.861-3.018-5.741-4.501-1.889-1.487-3.901-3.012-6.037-4.576v0l6.914-2.182c0.477 0.514 0.943 0.996 1.4 1.446 0.457 0.45 0.946 0.914 1.467 1.393 0.517 0.487 1.09 1.005 1.718 1.555 0.63 0.556 1.356 1.194 2.177 1.914v0c0.383-1.554 0.72-3.034 1.01-4.44 0.292-1.4 0.626-2.945 1.001-4.636z" opacity="1" transform="matrix(1,0,0,1,0,0)" fill="#000000" class="wordmark-text-0" data-fill-palette-color="primary" id="text-0"></path></svg></g></svg></g></svg></g></svg></g><g transform="matrix(1,0,0,1,144.15781199033165,0)"><svg viewBox="0 0 107.20437601933669 113.05972856111342" height="113.05972856111342" width="107.20437601933669"><g><svg xmlns="http://www.w3.org/2000/svg" xmlns:xlink="http://www.w3.org/1999/xlink" version="1.1" x="0" y="0" viewBox="7.447 5.04 85.264 89.92099999999999" enable-background="new 0 0 100 100" xml:space="preserve" height="113.05972856111342" width="107.20437601933669" class="icon-icon-0" data-fill-palette-color="accent" id="icon-0"><g fill="#ffffff" data-fill-palette-color="accent"><path d="M13.661 36.141C13.345 31.204 15.235 30.241 18.086 30.241S22.933 31.204 22.511 36.141C22.252 39.171 21.232 42.041 18.086 42.041 14.594 42.041 13.901 39.894 13.661 36.141" fill="#000000" data-fill-palette-color="accent"></path><path d="M28.832 46.892C28.61 44.993 26.972 43.784 25.181 43.782L22.933 43.741 19.677 50.116 19.246 46.891 19.75 45.815C20.297 44.646 19.544 43.741 19.031 43.741H17.249C16.736 43.741 15.983 44.647 16.53 45.815L17.034 46.891 16.603 50.116 13.347 43.741 10.864 43.762C9.024 43.76 7.614 44.935 7.447 46.891L8.92 68.815C9.79 69.748 10.028 69.895 11.132 70.52L11.869 93.052C12.606 94.627 14.787 94.627 17.769 94.627 20.819 94.627 23.669 94.627 24.406 93.052L25.106 70.52C26.186 69.88 26.446 69.827 27.355 68.815z" fill="#000000" data-fill-palette-color="accent"></path><path d="M77.54 36.474C77.224 31.537 79.114 30.574 81.965 30.574S86.812 31.537 86.39 36.474C86.131 39.504 85.111 42.374 81.965 42.374 78.473 42.374 77.78 40.227 77.54 36.474" fill="#000000" data-fill-palette-color="accent"></path><path d="M92.711 47.225C92.489 45.326 90.851 44.117 89.06 44.115L86.812 44.074 83.556 50.449 83.125 47.224 83.629 46.148C84.176 44.979 83.423 44.074 82.91 44.074H81.128C80.615 44.074 79.862 44.98 80.409 46.148L80.913 47.224 80.48 50.45 77.224 44.075 74.741 44.096C72.901 44.094 71.491 45.269 71.324 47.225L72.799 69.149C73.669 70.082 73.907 70.229 75.011 70.854L75.748 93.386C76.485 94.961 78.666 94.961 81.648 94.961 84.698 94.961 87.548 94.961 88.285 93.386L88.985 70.854C90.065 70.214 90.325 70.161 91.234 69.149z" fill="#000000" data-fill-palette-color="accent"></path><path d="M49.448 20.628C53.604 20.628 54.952 16.836 55.294 12.834 55.851 6.312 53.215 5.04 49.448 5.04S43.185 6.312 43.602 12.834C43.919 17.791 44.835 20.628 49.448 20.628" fill="#000000" data-fill-palette-color="accent"></path><path d="M49.466 59.191C44.286 59.191 39.681 56.731 36.721 52.93L37.318 61.804C38.467 63.037 38.781 63.231 40.241 64.056L41.215 92.312C42.189 94.393 45.07 94.393 49.009 94.393 53.039 94.393 56.803 94.393 57.778 92.312L58.703 64.056C60.129 63.211 60.473 63.14 61.675 61.804L62.278 52.843C59.322 56.693 54.686 59.191 49.466 59.191" fill="#000000" data-fill-palette-color="accent"></path><path d="M45.291 27.438L43.185 23.315 39.906 23.343C37.475 23.34 35.612 24.893 35.391 27.477L35.854 34.36A16.2 16.2 0 0 1 45.291 27.438" fill="#000000" data-fill-palette-color="accent"></path><path d="M47.812 26.955A16 16 0 0 1 51.217 26.969L51.645 26.055C52.368 24.511 51.373 23.315 50.695 23.315H48.341C47.663 23.315 46.668 24.512 47.391 26.055z" fill="#000000" data-fill-palette-color="accent"></path><path d="M58.957 29.551L62.949 25.559C62.072 24.19 60.505 23.371 58.822 23.369L55.852 23.315 53.732 27.465C54.483 27.672 55.227 27.914 55.95 28.231z" fill="#000000" data-fill-palette-color="accent"></path><path d="M55.423 40.5C55.746 41.279 55.927 42.131 55.927 43.026 55.927 46.671 52.962 49.636 49.318 49.636S42.708 46.671 42.708 43.026 45.674 36.417 49.318 36.417C50.212 36.417 51.065 36.598 51.844 36.921L53.736 35.029A9.1 9.1 0 0 0 49.319 33.885C44.279 33.885 40.177 37.986 40.177 43.026S44.278 52.167 49.319 52.167 58.46 48.066 58.46 43.026A9.1 9.1 0 0 0 57.316 38.609z" fill="#000000" data-fill-palette-color="accent"></path><path d="M71.893 20.451V15.082L67.039 19.936 65.863 24.692 51.267 39.287A4.22 4.22 0 1 0 53.056 41.076L67.651 26.481 72.408 25.304 77.261 20.45z" fill="#000000" data-fill-palette-color="accent"></path><path d="M58.806 37.117A11.1 11.1 0 0 1 60.51 43.026C60.51 49.198 55.489 54.219 49.318 54.219S38.125 49.198 38.125 43.026 43.146 31.833 49.318 31.833C51.488 31.833 53.51 32.464 55.227 33.538L57.06 31.705A13.64 13.64 0 0 0 49.318 29.302C41.75 29.302 35.593 35.459 35.593 43.026S41.75 56.751 49.318 56.751 63.042 50.594 63.042 43.026C63.042 40.155 62.153 37.49 60.64 35.284z" fill="#000000" data-fill-palette-color="accent"></path></g></svg></g></svg></g><g></g></svg></g><defs></defs></svg><rect width="395.52" height="233.42154603527013" fill="none" stroke="none" visibility="hidden"></rect></g></svg></g></svg>